<svg width="174" height="46" viewBox="0 0 174 46" fill="none" xmlns="http://www.w3.org/2000/svg">
<path fill-rule="evenodd" clip-rule="evenodd" d="M26.6185 5.70398H19.0132C14.9791 5.70398 11.1102 7.30652 8.25769 10.1591C5.40515 13.0116 3.80261 16.8805 3.80261 20.9146C3.80261 33.2732 17.1119 38.9771 26.6185 42.7798V36.1251C30.6526 36.1251 34.5215 34.5226 37.374 31.6701C40.2265 28.8175 41.8291 24.9487 41.8291 20.9146C41.8291 16.8805 40.2265 13.0116 37.374 10.1591C34.5215 7.30652 30.6526 5.70398 26.6185 5.70398ZM19.5564 17.1613H19.6429H20.5564H20.6429H24.9888H25.0753H25.9888H26.0753H27.1617C27.7306 17.1613 28.2964 17.4076 28.7284 17.8802C29.1633 18.3558 29.4211 19.0185 29.4211 19.7262V26.8562C29.4211 27.564 29.1633 28.2267 28.7284 28.7022C28.2964 29.1748 27.7306 29.4212 27.1617 29.4212H18.47C17.9011 29.4212 17.3353 29.1748 16.9032 28.7022C16.4684 28.2267 16.2105 27.5639 16.2105 26.8562V19.7262C16.2105 19.0185 16.4684 18.3558 16.9032 17.8802C17.3353 17.4076 17.9011 17.1613 18.47 17.1613H19.5564ZM21.3096 24.8063C21.6925 25.2251 22.2321 25.4795 22.8158 25.4795C23.3996 25.4795 23.9392 25.2251 24.3221 24.8063C24.7023 24.3904 24.9023 23.8441 24.9023 23.2912C24.9023 22.7383 24.7023 22.192 24.3221 21.7762C23.9392 21.3573 23.3996 21.1029 22.8158 21.1029C22.2321 21.1029 21.6925 21.3573 21.3096 21.7762C20.9294 22.192 20.7294 22.7383 20.7294 23.2912C20.7294 23.8441 20.9294 24.3904 21.3096 24.8063ZM22.8158 11.4079C21.9514 11.4079 21.1223 11.7835 20.5111 12.4521C19.8998 13.1207 19.5564 14.0274 19.5564 14.9729V15.1613V16.1613H18.5564H18.47C17.6055 16.1613 16.7765 16.5368 16.1652 17.2054C15.554 17.874 15.2105 18.7807 15.2105 19.7262V26.8562C15.2105 27.8017 15.554 28.7085 16.1652 29.377C16.7765 30.0456 17.6055 30.4212 18.47 30.4212H27.1617C28.0262 30.4212 28.8552 30.0456 29.4665 29.377C30.0777 28.7085 30.4211 27.8017 30.4211 26.8562V19.7262C30.4211 18.7807 30.0777 17.874 29.4665 17.2054C28.8552 16.5368 28.0262 16.1613 27.1617 16.1613H27.0753H26.0753V15.1613V14.9729C26.0753 14.0274 25.7318 13.1207 25.1206 12.4521C24.5093 11.7835 23.6803 11.4079 22.8158 11.4079ZM20.6429 14.9729C20.6429 14.3426 20.8718 13.7381 21.2793 13.2924C21.6868 12.8467 22.2395 12.5963 22.8158 12.5963C23.3921 12.5963 23.9448 12.8467 24.3523 13.2924C24.7598 13.7381 24.9888 14.3426 24.9888 14.9729V15.1613V16.1613H23.9888H21.6429H20.6429V15.1613V14.9729ZM22.8158 24.4795C22.5277 24.4795 22.2513 24.3543 22.0476 24.1315C21.8438 23.9086 21.7294 23.6064 21.7294 23.2912C21.7294 22.9761 21.8438 22.6738 22.0476 22.4509C22.2513 22.2281 22.5277 22.1029 22.8158 22.1029C23.104 22.1029 23.3803 22.2281 23.5841 22.4509C23.7878 22.6738 23.9023 22.9761 23.9023 23.2912C23.9023 23.6064 23.7878 23.9086 23.5841 24.1315C23.3803 24.3543 23.104 24.4795 22.8158 24.4795Z" fill="#F9F9F9"/>
<path d="M57.8001 31.7293H65.4358V33.4633H55.6707V12.1989H57.8001V31.7293Z" fill="#F9F9F9"/>
<path d="M69.5396 13.7199C69.1137 13.7199 68.7487 13.5678 68.4445 13.2636C68.1402 12.9594 67.9881 12.5842 67.9881 12.138C67.9881 11.6919 68.1402 11.3268 68.4445 11.0429C68.7487 10.7387 69.1137 10.5866 69.5396 10.5866C69.9655 10.5866 70.3306 10.7387 70.6348 11.0429C70.939 11.3268 71.0911 11.6919 71.0911 12.138C71.0911 12.5842 70.939 12.9594 70.6348 13.2636C70.3306 13.5678 69.9655 13.7199 69.5396 13.7199ZM70.6044 16.8533V33.4633H68.4749V16.8533H70.6044Z" fill="#F9F9F9"/>
<path d="M77.5256 20.5343C78.0732 19.3783 78.9149 18.4352 80.0506 17.7051C81.2066 16.975 82.5654 16.6099 84.127 16.6099C85.6481 16.6099 87.0069 16.9649 88.2035 17.6747C89.4 18.3642 90.333 19.358 91.0022 20.656C91.6918 21.9337 92.0365 23.4243 92.0365 25.1279C92.0365 26.8315 91.6918 28.3322 91.0022 29.6302C90.333 30.9282 89.3899 31.9321 88.1731 32.6419C86.9765 33.3517 85.6278 33.7066 84.127 33.7066C82.5451 33.7066 81.1762 33.3517 80.0202 32.6419C78.8845 31.9118 78.0529 30.9687 77.5256 29.8127V33.4633H75.4266V10.9516H77.5256V20.5343ZM89.8766 25.1279C89.8766 23.7488 89.6028 22.5624 89.0553 21.5686C88.528 20.5546 87.7979 19.7839 86.8649 19.2566C85.932 18.7293 84.8774 18.4656 83.7011 18.4656C82.5654 18.4656 81.521 18.7394 80.5678 19.287C79.6348 19.8346 78.8946 20.6154 78.347 21.6294C77.7994 22.6435 77.5256 23.8198 77.5256 25.1583C77.5256 26.4968 77.7994 27.6731 78.347 28.6872C78.8946 29.7012 79.6348 30.482 80.5678 31.0296C81.521 31.5772 82.5654 31.851 83.7011 31.851C84.8774 31.851 85.932 31.5873 86.8649 31.06C87.7979 30.5124 88.528 29.7316 89.0553 28.7176C89.6028 27.6833 89.8766 26.4867 89.8766 25.1279Z" fill="#F9F9F9"/>
<path d="M110.983 24.3065C110.983 25.0366 110.963 25.5943 110.922 25.9797H97.1414C97.2022 27.2371 97.5064 28.312 98.054 29.2043C98.6016 30.0967 99.3215 30.7761 100.214 31.2425C101.106 31.6887 102.08 31.9118 103.134 31.9118C104.513 31.9118 105.669 31.5772 106.602 30.9079C107.556 30.2386 108.184 29.3361 108.488 28.2004H110.74C110.334 29.8229 109.462 31.1513 108.123 32.1856C106.805 33.1996 105.142 33.7066 103.134 33.7066C101.573 33.7066 100.173 33.3619 98.9362 32.6723C97.6991 31.9625 96.7256 30.9687 96.0158 29.691C95.3262 28.3931 94.9815 26.8822 94.9815 25.1583C94.9815 23.4344 95.3262 21.9235 96.0158 20.6255C96.7053 19.3276 97.6687 18.3338 98.9058 17.6443C100.143 16.9547 101.552 16.6099 103.134 16.6099C104.716 16.6099 106.095 16.9547 107.272 17.6443C108.468 18.3338 109.381 19.2667 110.01 20.443C110.658 21.599 110.983 22.8868 110.983 24.3065ZM108.823 24.2457C108.843 23.0085 108.59 21.9539 108.063 21.0819C107.556 20.2098 106.856 19.5507 105.964 19.1045C105.071 18.6583 104.098 18.4352 103.043 18.4352C101.461 18.4352 100.112 18.9422 98.9971 19.9563C97.8816 20.9703 97.263 22.4001 97.1414 24.2457H108.823Z" fill="#F9F9F9"/>
<path d="M117.009 19.8042C117.475 18.7698 118.185 17.9688 119.138 17.4009C120.111 16.833 121.298 16.5491 122.697 16.5491V18.7698H122.119C120.578 18.7698 119.341 19.1856 118.408 20.0171C117.475 20.8486 117.009 22.2379 117.009 24.1848V33.4633H114.879V16.8533H117.009V19.8042Z" fill="#F9F9F9"/>
<path d="M124.927 25.1279C124.927 23.4243 125.262 21.9337 125.931 20.656C126.621 19.358 127.564 18.3642 128.76 17.6747C129.977 16.9649 131.346 16.6099 132.867 16.6099C134.449 16.6099 135.808 16.975 136.944 17.7051C138.1 18.4352 138.931 19.3681 139.438 20.5039V16.8533H141.568V33.4633H139.438V29.7823C138.911 30.918 138.069 31.8611 136.913 32.6115C135.778 33.3416 134.419 33.7066 132.837 33.7066C131.336 33.7066 129.977 33.3517 128.76 32.6419C127.564 31.9321 126.621 30.9282 125.931 29.6302C125.262 28.3322 124.927 26.8315 124.927 25.1279ZM139.438 25.1583C139.438 23.8198 139.164 22.6435 138.617 21.6294C138.069 20.6154 137.319 19.8346 136.366 19.287C135.433 18.7394 134.398 18.4656 133.263 18.4656C132.086 18.4656 131.032 18.7293 130.099 19.2566C129.166 19.7839 128.426 20.5546 127.878 21.5686C127.351 22.5624 127.087 23.7488 127.087 25.1279C127.087 26.4867 127.351 27.6833 127.878 28.7176C128.426 29.7316 129.166 30.5124 130.099 31.06C131.032 31.5873 132.086 31.851 133.263 31.851C134.398 31.851 135.433 31.5772 136.366 31.0296C137.319 30.482 138.069 29.7012 138.617 28.6872C139.164 27.6731 139.438 26.4968 139.438 25.1583Z" fill="#F9F9F9"/>
<path d="M159.176 29.691H151.205L149.928 33.4633H144.482L152.209 12.1076H158.233L165.96 33.4633H160.453L159.176 29.691ZM157.837 25.6755L155.19 17.8572L152.574 25.6755H157.837Z" fill="#F9F9F9"/>
<path d="M170.927 14.7238C170.015 14.7238 169.264 14.4602 168.676 13.9329C168.108 13.3853 167.824 12.716 167.824 11.9251C167.824 11.1139 168.108 10.4446 168.676 9.91729C169.264 9.36971 170.015 9.09592 170.927 9.09592C171.82 9.09592 172.55 9.36971 173.118 9.91729C173.706 10.4446 174 11.1139 174 11.9251C174 12.716 173.706 13.3853 173.118 13.9329C172.55 14.4602 171.82 14.7238 170.927 14.7238ZM173.513 16.4883V33.4633H168.311V16.4883H173.513Z" fill="#F9F9F9"/>
</svg>
