<svg width="229" height="60" viewBox="0 0 229 60" fill="none" xmlns="http://www.w3.org/2000/svg">
<path fill-rule="evenodd" clip-rule="evenodd" d="M35 7.5H25C19.6957 7.5 14.6086 9.60714 10.8579 13.3579C7.10714 17.1086 5 22.1957 5 27.5C5 43.75 22.5 51.25 35 56.25V47.5C40.3043 47.5 45.3914 45.3929 49.1421 41.6421C52.8929 37.8914 55 32.8043 55 27.5C55 22.1957 52.8929 17.1086 49.1421 13.3579C45.3914 9.60714 40.3043 7.5 35 7.5ZM27.1429 23.25H27.7143H32.2857H32.8571H34.2857H34.8571H35.7143C36.2597 23.25 36.8233 23.4854 37.2687 23.9725C37.7195 24.4656 38 25.1698 38 25.9375V35.3125C38 36.0802 37.7195 36.7844 37.2687 37.2775C36.8233 37.7646 36.2597 38 35.7143 38H24.2857C23.7403 38 23.1767 37.7646 22.7313 37.2775C22.2805 36.7844 22 36.0802 22 35.3125V25.9375C22 25.1698 22.2805 24.4656 22.7313 23.9725C23.1767 23.4854 23.7403 23.25 24.2857 23.25H25.1429H25.7143H27.1429ZM32.8571 21.25H32.2857H30.8571H29.1429H27.7143H27.1429V19.6875C27.1429 19.5403 27.1524 19.3941 27.171 19.25C27.2572 18.5829 27.5391 17.9597 27.9797 17.4778C28.0099 17.4447 28.0408 17.4125 28.0722 17.3811C28.5976 16.8556 29.285 16.5625 30 16.5625C30.715 16.5625 31.4024 16.8556 31.9278 17.3811C31.9592 17.4125 31.9901 17.4447 32.0203 17.4778C32.4609 17.9597 32.7428 18.5829 32.829 19.25C32.8476 19.3941 32.8571 19.5403 32.8571 19.6875V21.25ZM35.7143 21.25H34.8571H34.2857V19.6875C34.2857 18.4909 33.8674 17.3414 33.1193 16.473C33.0902 16.4392 33.0606 16.4059 33.0305 16.3729C32.2267 15.4939 31.1366 15 30 15C28.8634 15 27.7733 15.4939 26.9695 16.3729C26.9394 16.4059 26.9098 16.4392 26.8807 16.473C26.1326 17.3414 25.7143 18.4909 25.7143 19.6875V21.25H25.1429H24.2857C23.1491 21.25 22.059 21.7439 21.2553 22.6229C20.4515 23.502 20 24.6943 20 25.9375V35.3125C20 36.5557 20.4515 37.748 21.2553 38.6271C22.059 39.5061 23.1491 40 24.2857 40H35.7143C36.8509 40 37.941 39.5061 38.7447 38.6271C39.5485 37.748 40 36.5557 40 35.3125V25.9375C40 24.6943 39.5485 23.502 38.7447 22.6229C37.941 21.7439 36.8509 21.25 35.7143 21.25ZM27.5138 33.0794C28.1401 33.7644 29.0299 34.1875 30 34.1875C30.9701 34.1875 31.8599 33.7644 32.4862 33.0794C33.107 32.4004 33.4286 31.5149 33.4286 30.625C33.4286 29.7351 33.107 28.8496 32.4862 28.1706C31.8599 27.4856 30.9701 27.0625 30 27.0625C29.0299 27.0625 28.1401 27.4856 27.5138 28.1706C26.893 28.8496 26.5714 29.7351 26.5714 30.625C26.5714 31.5149 26.893 32.4004 27.5138 33.0794ZM30 32.1875C29.6211 32.1875 29.2578 32.0229 28.9898 31.7299C28.7219 31.4368 28.5714 31.0394 28.5714 30.625C28.5714 30.2106 28.7219 29.8132 28.9898 29.5201C29.2578 29.2271 29.6211 29.0625 30 29.0625C30.3789 29.0625 30.7422 29.2271 31.0102 29.5201C31.2781 29.8132 31.4286 30.2106 31.4286 30.625C31.4286 31.0394 31.2781 31.4368 31.0102 31.7299C30.7422 32.0229 30.3789 32.1875 30 32.1875Z" fill="#1A1A1A"/>
<path d="M76 41.72H86.04V44H73.2V16.04H76V41.72Z" fill="#1A1A1A"/>
<path d="M91.4359 18.04C90.8759 18.04 90.3959 17.84 89.9959 17.44C89.5959 17.04 89.3959 16.5467 89.3959 15.96C89.3959 15.3733 89.5959 14.8933 89.9959 14.52C90.3959 14.12 90.8759 13.92 91.4359 13.92C91.9959 13.92 92.4759 14.12 92.8759 14.52C93.2759 14.8933 93.4759 15.3733 93.4759 15.96C93.4759 16.5467 93.2759 17.04 92.8759 17.44C92.4759 17.84 91.9959 18.04 91.4359 18.04ZM92.8359 22.16V44H90.0359V22.16H92.8359Z" fill="#1A1A1A"/>
<path d="M101.937 27C102.657 25.48 103.763 24.24 105.257 23.28C106.777 22.32 108.563 21.84 110.617 21.84C112.617 21.84 114.403 22.3067 115.977 23.24C117.55 24.1467 118.777 25.4533 119.657 27.16C120.563 28.84 121.017 30.8 121.017 33.04C121.017 35.28 120.563 37.2533 119.657 38.96C118.777 40.6667 117.537 41.9867 115.937 42.92C114.363 43.8533 112.59 44.32 110.617 44.32C108.537 44.32 106.737 43.8533 105.217 42.92C103.723 41.96 102.63 40.72 101.937 39.2V44H99.1766V14.4H101.937V27ZM118.177 33.04C118.177 31.2267 117.817 29.6667 117.097 28.36C116.403 27.0267 115.443 26.0133 114.217 25.32C112.99 24.6267 111.603 24.28 110.057 24.28C108.563 24.28 107.19 24.64 105.937 25.36C104.71 26.08 103.737 27.1067 103.017 28.44C102.297 29.7733 101.937 31.32 101.937 33.08C101.937 34.84 102.297 36.3867 103.017 37.72C103.737 39.0533 104.71 40.08 105.937 40.8C107.19 41.52 108.563 41.88 110.057 41.88C111.603 41.88 112.99 41.5333 114.217 40.84C115.443 40.12 116.403 39.0933 117.097 37.76C117.817 36.4 118.177 34.8267 118.177 33.04Z" fill="#1A1A1A"/>
<path d="M145.929 31.96C145.929 32.92 145.902 33.6533 145.849 34.16H127.729C127.809 35.8133 128.209 37.2267 128.929 38.4C129.649 39.5733 130.595 40.4667 131.769 41.08C132.942 41.6667 134.222 41.96 135.609 41.96C137.422 41.96 138.942 41.52 140.169 40.64C141.422 39.76 142.249 38.5733 142.649 37.08H145.609C145.075 39.2133 143.929 40.96 142.169 42.32C140.435 43.6533 138.249 44.32 135.609 44.32C133.555 44.32 131.715 43.8667 130.089 42.96C128.462 42.0267 127.182 40.72 126.249 39.04C125.342 37.3333 124.889 35.3467 124.889 33.08C124.889 30.8133 125.342 28.8267 126.249 27.12C127.155 25.4133 128.422 24.1067 130.049 23.2C131.675 22.2933 133.529 21.84 135.609 21.84C137.689 21.84 139.502 22.2933 141.049 23.2C142.622 24.1067 143.822 25.3333 144.649 26.88C145.502 28.4 145.929 30.0933 145.929 31.96ZM143.089 31.88C143.115 30.2533 142.782 28.8667 142.089 27.72C141.422 26.5733 140.502 25.7067 139.329 25.12C138.155 24.5333 136.875 24.24 135.489 24.24C133.409 24.24 131.635 24.9067 130.169 26.24C128.702 27.5733 127.889 29.4533 127.729 31.88H143.089Z" fill="#1A1A1A"/>
<path d="M153.852 26.04C154.465 24.68 155.398 23.6267 156.652 22.88C157.932 22.1333 159.492 21.76 161.332 21.76V24.68H160.572C158.545 24.68 156.918 25.2267 155.692 26.32C154.465 27.4133 153.852 29.24 153.852 31.8V44H151.052V22.16H153.852V26.04Z" fill="#1A1A1A"/>
<path d="M164.264 33.04C164.264 30.8 164.704 28.84 165.584 27.16C166.49 25.4533 167.73 24.1467 169.304 23.24C170.904 22.3067 172.704 21.84 174.704 21.84C176.784 21.84 178.57 22.32 180.064 23.28C181.584 24.24 182.677 25.4667 183.344 26.96V22.16H186.144V44H183.344V39.16C182.65 40.6533 181.544 41.8933 180.024 42.88C178.53 43.84 176.744 44.32 174.664 44.32C172.69 44.32 170.904 43.8533 169.304 42.92C167.73 41.9867 166.49 40.6667 165.584 38.96C164.704 37.2533 164.264 35.28 164.264 33.04ZM183.344 33.08C183.344 31.32 182.984 29.7733 182.264 28.44C181.544 27.1067 180.557 26.08 179.304 25.36C178.077 24.64 176.717 24.28 175.224 24.28C173.677 24.28 172.29 24.6267 171.064 25.32C169.837 26.0133 168.864 27.0267 168.144 28.36C167.45 29.6667 167.104 31.2267 167.104 33.04C167.104 34.8267 167.45 36.4 168.144 37.76C168.864 39.0933 169.837 40.12 171.064 40.84C172.29 41.5333 173.677 41.88 175.224 41.88C176.717 41.88 178.077 41.52 179.304 40.8C180.557 40.08 181.544 39.0533 182.264 37.72C182.984 36.3867 183.344 34.84 183.344 33.08Z" fill="#1A1A1A"/>
<path d="M209.296 39.04H198.816L197.136 44H189.976L200.136 15.92H208.056L218.216 44H210.976L209.296 39.04ZM207.536 33.76L204.056 23.48L200.616 33.76H207.536Z" fill="#1A1A1A"/>
<path d="M224.748 19.36C223.548 19.36 222.561 19.0133 221.788 18.32C221.041 17.6 220.668 16.72 220.668 15.68C220.668 14.6133 221.041 13.7333 221.788 13.04C222.561 12.32 223.548 11.96 224.748 11.96C225.921 11.96 226.881 12.32 227.628 13.04C228.401 13.7333 228.788 14.6133 228.788 15.68C228.788 16.72 228.401 17.6 227.628 18.32C226.881 19.0133 225.921 19.36 224.748 19.36ZM228.148 21.68V44H221.308V21.68H228.148Z" fill="#1A1A1A"/>
</svg>
